<mxfile host="app.diagrams.net" modified="2020-10-22T09:01:25.607Z" agent="5.0 (Macintosh; Intel Mac OS X 10_15_5) AppleWebKit/605.1.15 (KHTML, like Gecko) Version/13.1.1 Safari/605.1.15" etag="4xqkzYQ1K-8G1G3RA968" version="13.8.1" type="github">
  <diagram id="kgpKYQtTHZ0yAKxKKP6v" name="Page-1">
    <mxGraphModel dx="953" dy="681" grid="1" gridSize="10" guides="1" tooltips="1" connect="1" arrows="1" fold="1" page="1" pageScale="1" pageWidth="850" pageHeight="1100" math="0" shadow="0">
      <root>
        <mxCell id="0" />
        <mxCell id="1" parent="0" />
        <mxCell id="3nuBFxr9cyL0pnOWT2aG-1" value=":Object" style="shape=umlLifeline;perimeter=lifelinePerimeter;container=1;collapsible=0;recursiveResize=0;rounded=0;shadow=0;strokeWidth=1;" parent="1" vertex="1">
          <mxGeometry x="120" y="80" width="100" height="300" as="geometry" />
        </mxCell>
        <mxCell id="3nuBFxr9cyL0pnOWT2aG-2" value="" style="points=[];perimeter=orthogonalPerimeter;rounded=0;shadow=0;strokeWidth=1;" parent="3nuBFxr9cyL0pnOWT2aG-1" vertex="1">
          <mxGeometry x="45" y="70" width="10" height="190" as="geometry" />
        </mxCell>
        <mxCell id="3nuBFxr9cyL0pnOWT2aG-3" value="dispatch" style="verticalAlign=bottom;startArrow=oval;endArrow=block;startSize=8;shadow=0;strokeWidth=1;" parent="3nuBFxr9cyL0pnOWT2aG-1" target="3nuBFxr9cyL0pnOWT2aG-2" edge="1">
          <mxGeometry relative="1" as="geometry">
            <mxPoint x="-15" y="70" as="sourcePoint" />
          </mxGeometry>
        </mxCell>
        <mxCell id="3nuBFxr9cyL0pnOWT2aG-4" value="" style="points=[];perimeter=orthogonalPerimeter;rounded=0;shadow=0;strokeWidth=1;" parent="3nuBFxr9cyL0pnOWT2aG-1" vertex="1">
          <mxGeometry x="50" y="120" width="10" height="80" as="geometry" />
        </mxCell>
        <mxCell id="3nuBFxr9cyL0pnOWT2aG-5" value=":Object" style="shape=umlLifeline;perimeter=lifelinePerimeter;container=1;collapsible=0;recursiveResize=0;rounded=0;shadow=0;strokeWidth=1;" parent="1" vertex="1">
          <mxGeometry x="300" y="80" width="100" height="300" as="geometry" />
        </mxCell>
        <mxCell id="3nuBFxr9cyL0pnOWT2aG-6" value="" style="points=[];perimeter=orthogonalPerimeter;rounded=0;shadow=0;strokeWidth=1;" parent="3nuBFxr9cyL0pnOWT2aG-5" vertex="1">
          <mxGeometry x="45" y="80" width="10" height="160" as="geometry" />
        </mxCell>
        <mxCell id="3nuBFxr9cyL0pnOWT2aG-7" value="return" style="verticalAlign=bottom;endArrow=open;dashed=1;endSize=8;exitX=0;exitY=0.95;shadow=0;strokeWidth=1;" parent="1" source="3nuBFxr9cyL0pnOWT2aG-6" target="3nuBFxr9cyL0pnOWT2aG-2" edge="1">
          <mxGeometry relative="1" as="geometry">
            <mxPoint x="275" y="236" as="targetPoint" />
          </mxGeometry>
        </mxCell>
        <mxCell id="3nuBFxr9cyL0pnOWT2aG-8" value="dispatch" style="verticalAlign=bottom;endArrow=block;entryX=0;entryY=0;shadow=0;strokeWidth=1;" parent="1" source="3nuBFxr9cyL0pnOWT2aG-2" target="3nuBFxr9cyL0pnOWT2aG-6" edge="1">
          <mxGeometry relative="1" as="geometry">
            <mxPoint x="275" y="160" as="sourcePoint" />
          </mxGeometry>
        </mxCell>
        <mxCell id="3nuBFxr9cyL0pnOWT2aG-9" value="callback" style="verticalAlign=bottom;endArrow=block;entryX=1;entryY=0;shadow=0;strokeWidth=1;" parent="1" source="3nuBFxr9cyL0pnOWT2aG-6" target="3nuBFxr9cyL0pnOWT2aG-4" edge="1">
          <mxGeometry relative="1" as="geometry">
            <mxPoint x="240" y="200" as="sourcePoint" />
          </mxGeometry>
        </mxCell>
        <mxCell id="3nuBFxr9cyL0pnOWT2aG-10" value="return" style="verticalAlign=bottom;endArrow=open;dashed=1;endSize=8;exitX=1;exitY=0.95;shadow=0;strokeWidth=1;" parent="1" source="3nuBFxr9cyL0pnOWT2aG-4" target="3nuBFxr9cyL0pnOWT2aG-6" edge="1">
          <mxGeometry relative="1" as="geometry">
            <mxPoint x="240" y="257" as="targetPoint" />
          </mxGeometry>
        </mxCell>
        <mxCell id="kFd-FYuM0wiJ4ZgIufho-1" style="edgeStyle=orthogonalEdgeStyle;rounded=0;orthogonalLoop=1;jettySize=auto;html=1;exitX=0.5;exitY=1;exitDx=0;exitDy=0;entryX=0.5;entryY=0;entryDx=0;entryDy=0;" edge="1" parent="1" source="kFd-FYuM0wiJ4ZgIufho-2" target="kFd-FYuM0wiJ4ZgIufho-5">
          <mxGeometry relative="1" as="geometry" />
        </mxCell>
        <mxCell id="kFd-FYuM0wiJ4ZgIufho-2" value="采集接口(异步)&lt;span&gt; &lt;/span&gt;collectObject" style="rounded=1;whiteSpace=wrap;html=1;fontSize=12;glass=0;strokeWidth=1;shadow=0;" vertex="1" parent="1">
          <mxGeometry x="765" y="250" width="120" height="40" as="geometry" />
        </mxCell>
        <mxCell id="kFd-FYuM0wiJ4ZgIufho-3" style="edgeStyle=orthogonalEdgeStyle;rounded=0;orthogonalLoop=1;jettySize=auto;html=1;exitX=0.5;exitY=1;exitDx=0;exitDy=0;entryX=0.5;entryY=0;entryDx=0;entryDy=0;" edge="1" parent="1" source="kFd-FYuM0wiJ4ZgIufho-5" target="kFd-FYuM0wiJ4ZgIufho-7">
          <mxGeometry relative="1" as="geometry" />
        </mxCell>
        <mxCell id="kFd-FYuM0wiJ4ZgIufho-4" style="edgeStyle=orthogonalEdgeStyle;rounded=0;orthogonalLoop=1;jettySize=auto;html=1;exitX=1;exitY=0.5;exitDx=0;exitDy=0;entryX=0;entryY=0.5;entryDx=0;entryDy=0;" edge="1" parent="1" source="kFd-FYuM0wiJ4ZgIufho-5" target="kFd-FYuM0wiJ4ZgIufho-8">
          <mxGeometry relative="1" as="geometry" />
        </mxCell>
        <mxCell id="kFd-FYuM0wiJ4ZgIufho-5" value="是否征信任务" style="rhombus;whiteSpace=wrap;html=1;shadow=0;fontFamily=Helvetica;fontSize=12;align=center;strokeWidth=1;spacing=6;spacingTop=-4;" vertex="1" parent="1">
          <mxGeometry x="745" y="350" width="160" height="80" as="geometry" />
        </mxCell>
        <mxCell id="kFd-FYuM0wiJ4ZgIufho-6" style="edgeStyle=orthogonalEdgeStyle;rounded=0;orthogonalLoop=1;jettySize=auto;html=1;exitX=0.5;exitY=1;exitDx=0;exitDy=0;" edge="1" parent="1" source="kFd-FYuM0wiJ4ZgIufho-7" target="kFd-FYuM0wiJ4ZgIufho-24">
          <mxGeometry relative="1" as="geometry" />
        </mxCell>
        <mxCell id="kFd-FYuM0wiJ4ZgIufho-7" value="生成其它采集任务方法&lt;br&gt;collectObject" style="rounded=1;whiteSpace=wrap;html=1;fontSize=12;glass=0;strokeWidth=1;shadow=0;" vertex="1" parent="1">
          <mxGeometry x="760" y="490" width="130" height="40" as="geometry" />
        </mxCell>
        <mxCell id="kFd-FYuM0wiJ4ZgIufho-8" value="征信采集方法doCreditCollect" style="rounded=1;whiteSpace=wrap;html=1;fontSize=12;glass=0;strokeWidth=1;shadow=0;" vertex="1" parent="1">
          <mxGeometry x="985" y="370" width="120" height="40" as="geometry" />
        </mxCell>
        <mxCell id="kFd-FYuM0wiJ4ZgIufho-9" style="edgeStyle=orthogonalEdgeStyle;rounded=0;orthogonalLoop=1;jettySize=auto;html=1;exitX=0.5;exitY=1;exitDx=0;exitDy=0;entryX=0.5;entryY=0;entryDx=0;entryDy=0;" edge="1" parent="1" source="kFd-FYuM0wiJ4ZgIufho-11" target="kFd-FYuM0wiJ4ZgIufho-35">
          <mxGeometry relative="1" as="geometry" />
        </mxCell>
        <mxCell id="kFd-FYuM0wiJ4ZgIufho-10" style="edgeStyle=orthogonalEdgeStyle;rounded=0;orthogonalLoop=1;jettySize=auto;html=1;exitX=1;exitY=0.5;exitDx=0;exitDy=0;entryX=0;entryY=0.5;entryDx=0;entryDy=0;" edge="1" parent="1" source="kFd-FYuM0wiJ4ZgIufho-11" target="kFd-FYuM0wiJ4ZgIufho-50">
          <mxGeometry relative="1" as="geometry" />
        </mxCell>
        <mxCell id="kFd-FYuM0wiJ4ZgIufho-11" value="是否是芝麻采集" style="rhombus;whiteSpace=wrap;html=1;shadow=0;fontFamily=Helvetica;fontSize=12;align=center;strokeWidth=1;spacing=6;spacingTop=-4;" vertex="1" parent="1">
          <mxGeometry x="742.5" y="870" width="165" height="80" as="geometry" />
        </mxCell>
        <mxCell id="kFd-FYuM0wiJ4ZgIufho-12" style="edgeStyle=orthogonalEdgeStyle;rounded=0;orthogonalLoop=1;jettySize=auto;html=1;exitX=0.5;exitY=1;exitDx=0;exitDy=0;entryX=0.5;entryY=0;entryDx=0;entryDy=0;" edge="1" parent="1" source="kFd-FYuM0wiJ4ZgIufho-13" target="kFd-FYuM0wiJ4ZgIufho-15">
          <mxGeometry relative="1" as="geometry" />
        </mxCell>
        <mxCell id="kFd-FYuM0wiJ4ZgIufho-13" value="采集执行器&lt;br&gt;NormalDmcExecutor" style="rounded=1;whiteSpace=wrap;html=1;fontSize=12;glass=0;strokeWidth=1;shadow=0;" vertex="1" parent="1">
          <mxGeometry x="1372.5" y="240" width="120" height="40" as="geometry" />
        </mxCell>
        <mxCell id="kFd-FYuM0wiJ4ZgIufho-14" style="edgeStyle=orthogonalEdgeStyle;rounded=0;orthogonalLoop=1;jettySize=auto;html=1;exitX=0.5;exitY=1;exitDx=0;exitDy=0;entryX=0.5;entryY=0;entryDx=0;entryDy=0;" edge="1" parent="1" source="kFd-FYuM0wiJ4ZgIufho-15" target="kFd-FYuM0wiJ4ZgIufho-55">
          <mxGeometry relative="1" as="geometry">
            <mxPoint x="1433" y="410" as="targetPoint" />
          </mxGeometry>
        </mxCell>
        <mxCell id="kFd-FYuM0wiJ4ZgIufho-15" value="从队列中取出采集任务collectTask&lt;br&gt;根据collectTask从agdsdatahub_dmc_task表查询任务" style="rounded=1;whiteSpace=wrap;html=1;fontSize=12;glass=0;strokeWidth=1;shadow=0;align=left;" vertex="1" parent="1">
          <mxGeometry x="1287.5" y="350" width="290" height="40" as="geometry" />
        </mxCell>
        <mxCell id="kFd-FYuM0wiJ4ZgIufho-16" value="Yes" style="text;html=1;strokeColor=none;fillColor=none;align=center;verticalAlign=middle;whiteSpace=wrap;rounded=0;" vertex="1" parent="1">
          <mxGeometry x="1570" y="490" width="40" height="20" as="geometry" />
        </mxCell>
        <mxCell id="kFd-FYuM0wiJ4ZgIufho-17" value="更新采集任务状态DONE&lt;br&gt;agdsdatahub_dmc_task" style="rounded=1;whiteSpace=wrap;html=1;fontSize=12;glass=0;strokeWidth=1;shadow=0;" vertex="1" parent="1">
          <mxGeometry x="1650" y="490" width="150" height="40" as="geometry" />
        </mxCell>
        <mxCell id="kFd-FYuM0wiJ4ZgIufho-18" style="edgeStyle=orthogonalEdgeStyle;rounded=0;orthogonalLoop=1;jettySize=auto;html=1;exitX=0.5;exitY=1;exitDx=0;exitDy=0;entryX=0.5;entryY=0;entryDx=0;entryDy=0;" edge="1" parent="1" source="kFd-FYuM0wiJ4ZgIufho-19" target="kFd-FYuM0wiJ4ZgIufho-21">
          <mxGeometry relative="1" as="geometry" />
        </mxCell>
        <mxCell id="kFd-FYuM0wiJ4ZgIufho-19" value="指标计算执行器&lt;br&gt;QuotaCalExecutor" style="rounded=1;whiteSpace=wrap;html=1;fontSize=12;glass=0;strokeWidth=1;shadow=0;" vertex="1" parent="1">
          <mxGeometry x="1372.5" y="1170" width="120" height="40" as="geometry" />
        </mxCell>
        <mxCell id="kFd-FYuM0wiJ4ZgIufho-20" style="edgeStyle=orthogonalEdgeStyle;rounded=0;orthogonalLoop=1;jettySize=auto;html=1;exitX=0.5;exitY=1;exitDx=0;exitDy=0;" edge="1" parent="1" source="kFd-FYuM0wiJ4ZgIufho-21" target="kFd-FYuM0wiJ4ZgIufho-69">
          <mxGeometry relative="1" as="geometry" />
        </mxCell>
        <mxCell id="kFd-FYuM0wiJ4ZgIufho-21" value="取出指标计算任务" style="rounded=1;whiteSpace=wrap;html=1;fontSize=12;glass=0;strokeWidth=1;shadow=0;" vertex="1" parent="1">
          <mxGeometry x="1372.5" y="1270" width="120" height="40" as="geometry" />
        </mxCell>
        <mxCell id="kFd-FYuM0wiJ4ZgIufho-22" style="edgeStyle=orthogonalEdgeStyle;rounded=0;orthogonalLoop=1;jettySize=auto;html=1;exitX=1;exitY=0.5;exitDx=0;exitDy=0;entryX=0;entryY=0.5;entryDx=0;entryDy=0;" edge="1" parent="1" source="kFd-FYuM0wiJ4ZgIufho-24" target="kFd-FYuM0wiJ4ZgIufho-25">
          <mxGeometry relative="1" as="geometry" />
        </mxCell>
        <mxCell id="kFd-FYuM0wiJ4ZgIufho-23" style="edgeStyle=orthogonalEdgeStyle;rounded=0;orthogonalLoop=1;jettySize=auto;html=1;exitX=0.5;exitY=1;exitDx=0;exitDy=0;entryX=0.5;entryY=0;entryDx=0;entryDy=0;" edge="1" parent="1" source="kFd-FYuM0wiJ4ZgIufho-24" target="kFd-FYuM0wiJ4ZgIufho-29">
          <mxGeometry relative="1" as="geometry" />
        </mxCell>
        <mxCell id="kFd-FYuM0wiJ4ZgIufho-24" value="查询任务是否已经存在&lt;br&gt;agdsdatahub_dmc_task" style="rhombus;whiteSpace=wrap;html=1;shadow=0;fontFamily=Helvetica;fontSize=12;align=center;strokeWidth=1;spacing=6;spacingTop=-4;" vertex="1" parent="1">
          <mxGeometry x="730" y="600" width="190" height="80" as="geometry" />
        </mxCell>
        <mxCell id="kFd-FYuM0wiJ4ZgIufho-25" value="返回" style="rounded=1;whiteSpace=wrap;html=1;fontSize=12;glass=0;strokeWidth=1;shadow=0;align=center;" vertex="1" parent="1">
          <mxGeometry x="985" y="617.5" width="155" height="45" as="geometry" />
        </mxCell>
        <mxCell id="kFd-FYuM0wiJ4ZgIufho-26" value="Yes" style="text;html=1;strokeColor=none;fillColor=none;align=center;verticalAlign=middle;whiteSpace=wrap;rounded=0;" vertex="1" parent="1">
          <mxGeometry x="935" y="617.5" width="40" height="20" as="geometry" />
        </mxCell>
        <mxCell id="kFd-FYuM0wiJ4ZgIufho-27" style="edgeStyle=orthogonalEdgeStyle;rounded=0;orthogonalLoop=1;jettySize=auto;html=1;exitX=1;exitY=0.5;exitDx=0;exitDy=0;entryX=0;entryY=0.5;entryDx=0;entryDy=0;" edge="1" parent="1" source="kFd-FYuM0wiJ4ZgIufho-29" target="kFd-FYuM0wiJ4ZgIufho-30">
          <mxGeometry relative="1" as="geometry" />
        </mxCell>
        <mxCell id="kFd-FYuM0wiJ4ZgIufho-28" style="edgeStyle=orthogonalEdgeStyle;rounded=0;orthogonalLoop=1;jettySize=auto;html=1;exitX=0.5;exitY=1;exitDx=0;exitDy=0;entryX=0.5;entryY=0;entryDx=0;entryDy=0;" edge="1" parent="1" source="kFd-FYuM0wiJ4ZgIufho-29" target="kFd-FYuM0wiJ4ZgIufho-11">
          <mxGeometry relative="1" as="geometry" />
        </mxCell>
        <mxCell id="kFd-FYuM0wiJ4ZgIufho-29" value="采集数据对象是否已经存在&lt;br&gt;agdsdatahub_dmc_model_data" style="rhombus;whiteSpace=wrap;html=1;shadow=0;fontFamily=Helvetica;fontSize=12;align=center;strokeWidth=1;spacing=6;spacingTop=-4;" vertex="1" parent="1">
          <mxGeometry x="730" y="720" width="190" height="80" as="geometry" />
        </mxCell>
        <mxCell id="kFd-FYuM0wiJ4ZgIufho-30" value="抛出数据已经存在异常" style="rounded=1;whiteSpace=wrap;html=1;fontSize=12;glass=0;strokeWidth=1;shadow=0;align=center;" vertex="1" parent="1">
          <mxGeometry x="985" y="737.5" width="160" height="45" as="geometry" />
        </mxCell>
        <mxCell id="kFd-FYuM0wiJ4ZgIufho-31" value="Yes" style="text;html=1;strokeColor=none;fillColor=none;align=center;verticalAlign=middle;whiteSpace=wrap;rounded=0;" vertex="1" parent="1">
          <mxGeometry x="930" y="730" width="40" height="20" as="geometry" />
        </mxCell>
        <mxCell id="kFd-FYuM0wiJ4ZgIufho-32" value="Yes" style="text;html=1;strokeColor=none;fillColor=none;align=center;verticalAlign=middle;whiteSpace=wrap;rounded=0;" vertex="1" parent="1">
          <mxGeometry x="925" y="370" width="40" height="20" as="geometry" />
        </mxCell>
        <mxCell id="kFd-FYuM0wiJ4ZgIufho-33" style="edgeStyle=orthogonalEdgeStyle;rounded=0;orthogonalLoop=1;jettySize=auto;html=1;exitX=0.5;exitY=1;exitDx=0;exitDy=0;" edge="1" parent="1" source="kFd-FYuM0wiJ4ZgIufho-35" target="kFd-FYuM0wiJ4ZgIufho-42">
          <mxGeometry relative="1" as="geometry" />
        </mxCell>
        <mxCell id="kFd-FYuM0wiJ4ZgIufho-34" style="edgeStyle=orthogonalEdgeStyle;rounded=0;orthogonalLoop=1;jettySize=auto;html=1;exitX=0;exitY=0.5;exitDx=0;exitDy=0;entryX=1;entryY=0.5;entryDx=0;entryDy=0;" edge="1" parent="1" source="kFd-FYuM0wiJ4ZgIufho-35" target="kFd-FYuM0wiJ4ZgIufho-37">
          <mxGeometry relative="1" as="geometry" />
        </mxCell>
        <mxCell id="kFd-FYuM0wiJ4ZgIufho-35" value="&lt;span style=&quot;text-align: left&quot;&gt;HBASE是否有数据并进行验证&lt;/span&gt;" style="rhombus;whiteSpace=wrap;html=1;shadow=0;fontFamily=Helvetica;fontSize=12;align=center;strokeWidth=1;spacing=6;spacingTop=-4;" vertex="1" parent="1">
          <mxGeometry x="742.5" y="1000" width="165" height="80" as="geometry" />
        </mxCell>
        <mxCell id="kFd-FYuM0wiJ4ZgIufho-36" style="edgeStyle=orthogonalEdgeStyle;rounded=0;orthogonalLoop=1;jettySize=auto;html=1;exitX=0.5;exitY=1;exitDx=0;exitDy=0;entryX=0.5;entryY=0;entryDx=0;entryDy=0;" edge="1" parent="1" source="kFd-FYuM0wiJ4ZgIufho-37" target="kFd-FYuM0wiJ4ZgIufho-39">
          <mxGeometry relative="1" as="geometry" />
        </mxCell>
        <mxCell id="kFd-FYuM0wiJ4ZgIufho-37" value="保存一阶段采集TASK&lt;br&gt;agdsdatahub_dmc_task" style="rounded=1;whiteSpace=wrap;html=1;fontSize=12;glass=0;strokeWidth=1;shadow=0;align=center;" vertex="1" parent="1">
          <mxGeometry x="505" y="1015" width="135" height="50" as="geometry" />
        </mxCell>
        <mxCell id="kFd-FYuM0wiJ4ZgIufho-38" style="edgeStyle=orthogonalEdgeStyle;rounded=0;orthogonalLoop=1;jettySize=auto;html=1;exitX=0.5;exitY=1;exitDx=0;exitDy=0;entryX=0.5;entryY=0;entryDx=0;entryDy=0;" edge="1" parent="1" source="kFd-FYuM0wiJ4ZgIufho-39" target="kFd-FYuM0wiJ4ZgIufho-40">
          <mxGeometry relative="1" as="geometry" />
        </mxCell>
        <mxCell id="kFd-FYuM0wiJ4ZgIufho-39" value="保存采集上下文到HBASE" style="rounded=1;whiteSpace=wrap;html=1;fontSize=12;glass=0;strokeWidth=1;shadow=0;align=center;" vertex="1" parent="1">
          <mxGeometry x="502.5" y="1125" width="140" height="50" as="geometry" />
        </mxCell>
        <mxCell id="kFd-FYuM0wiJ4ZgIufho-40" value="发送芝麻证的验证事件" style="rounded=1;whiteSpace=wrap;html=1;fontSize=12;glass=0;strokeWidth=1;shadow=0;align=center;" vertex="1" parent="1">
          <mxGeometry x="500" y="1235" width="145" height="50" as="geometry" />
        </mxCell>
        <mxCell id="kFd-FYuM0wiJ4ZgIufho-41" style="edgeStyle=orthogonalEdgeStyle;rounded=0;orthogonalLoop=1;jettySize=auto;html=1;exitX=0.5;exitY=1;exitDx=0;exitDy=0;" edge="1" parent="1" source="kFd-FYuM0wiJ4ZgIufho-42" target="kFd-FYuM0wiJ4ZgIufho-43">
          <mxGeometry relative="1" as="geometry" />
        </mxCell>
        <mxCell id="kFd-FYuM0wiJ4ZgIufho-42" value="插入采集异步任务" style="rounded=1;whiteSpace=wrap;html=1;fontSize=12;glass=0;strokeWidth=1;shadow=0;align=center;" vertex="1" parent="1">
          <mxGeometry x="757.5" y="1120" width="135" height="50" as="geometry" />
        </mxCell>
        <mxCell id="kFd-FYuM0wiJ4ZgIufho-43" value="更新采集任务状态INIT&lt;br&gt;agdsdatahub_dmc_task" style="rounded=1;whiteSpace=wrap;html=1;fontSize=12;glass=0;strokeWidth=1;shadow=0;align=center;" vertex="1" parent="1">
          <mxGeometry x="757.5" y="1255" width="135" height="50" as="geometry" />
        </mxCell>
        <mxCell id="kFd-FYuM0wiJ4ZgIufho-44" value="No" style="text;html=1;strokeColor=none;fillColor=none;align=center;verticalAlign=middle;whiteSpace=wrap;rounded=0;" vertex="1" parent="1">
          <mxGeometry x="680" y="1015" width="40" height="20" as="geometry" />
        </mxCell>
        <mxCell id="kFd-FYuM0wiJ4ZgIufho-45" value="Yes" style="text;html=1;align=center;verticalAlign=middle;resizable=0;points=[];autosize=1;" vertex="1" parent="1">
          <mxGeometry x="830" y="960" width="40" height="20" as="geometry" />
        </mxCell>
        <mxCell id="kFd-FYuM0wiJ4ZgIufho-46" value="No" style="text;html=1;align=center;verticalAlign=middle;resizable=0;points=[];autosize=1;" vertex="1" parent="1">
          <mxGeometry x="835" y="820" width="30" height="20" as="geometry" />
        </mxCell>
        <mxCell id="kFd-FYuM0wiJ4ZgIufho-47" value="No" style="text;html=1;align=center;verticalAlign=middle;resizable=0;points=[];autosize=1;" vertex="1" parent="1">
          <mxGeometry x="835" y="690" width="30" height="20" as="geometry" />
        </mxCell>
        <mxCell id="kFd-FYuM0wiJ4ZgIufho-48" value="No" style="text;html=1;align=center;verticalAlign=middle;resizable=0;points=[];autosize=1;" vertex="1" parent="1">
          <mxGeometry x="830" y="450" width="30" height="20" as="geometry" />
        </mxCell>
        <mxCell id="kFd-FYuM0wiJ4ZgIufho-49" style="edgeStyle=orthogonalEdgeStyle;rounded=0;orthogonalLoop=1;jettySize=auto;html=1;exitX=0.5;exitY=1;exitDx=0;exitDy=0;entryX=0.5;entryY=0;entryDx=0;entryDy=0;" edge="1" parent="1" source="kFd-FYuM0wiJ4ZgIufho-50" target="kFd-FYuM0wiJ4ZgIufho-52">
          <mxGeometry relative="1" as="geometry" />
        </mxCell>
        <mxCell id="kFd-FYuM0wiJ4ZgIufho-50" value="插入采集异步任务" style="rounded=1;whiteSpace=wrap;html=1;fontSize=12;glass=0;strokeWidth=1;shadow=0;align=center;" vertex="1" parent="1">
          <mxGeometry x="982.5" y="885" width="165" height="50" as="geometry" />
        </mxCell>
        <mxCell id="kFd-FYuM0wiJ4ZgIufho-51" value="No" style="text;html=1;align=center;verticalAlign=middle;resizable=0;points=[];autosize=1;" vertex="1" parent="1">
          <mxGeometry x="935" y="890" width="30" height="20" as="geometry" />
        </mxCell>
        <mxCell id="kFd-FYuM0wiJ4ZgIufho-52" value="更新采集任务状态INIT并保存&lt;br&gt;dmc_collecting_task" style="rounded=1;whiteSpace=wrap;html=1;fontSize=12;glass=0;strokeWidth=1;shadow=0;align=center;" vertex="1" parent="1">
          <mxGeometry x="982.5" y="1015" width="165" height="50" as="geometry" />
        </mxCell>
        <mxCell id="kFd-FYuM0wiJ4ZgIufho-53" style="edgeStyle=orthogonalEdgeStyle;rounded=0;orthogonalLoop=1;jettySize=auto;html=1;exitX=0.5;exitY=1;exitDx=0;exitDy=0;" edge="1" parent="1" source="kFd-FYuM0wiJ4ZgIufho-55" target="kFd-FYuM0wiJ4ZgIufho-60">
          <mxGeometry relative="1" as="geometry">
            <mxPoint x="1433" y="620" as="targetPoint" />
          </mxGeometry>
        </mxCell>
        <mxCell id="kFd-FYuM0wiJ4ZgIufho-54" style="edgeStyle=orthogonalEdgeStyle;rounded=0;orthogonalLoop=1;jettySize=auto;html=1;exitX=1;exitY=0.5;exitDx=0;exitDy=0;entryX=0;entryY=0.5;entryDx=0;entryDy=0;" edge="1" parent="1" source="kFd-FYuM0wiJ4ZgIufho-55" target="kFd-FYuM0wiJ4ZgIufho-17">
          <mxGeometry relative="1" as="geometry" />
        </mxCell>
        <mxCell id="kFd-FYuM0wiJ4ZgIufho-55" value="采集数据对象是否已经存在&lt;br&gt;agdsdatahub_dmc_model_data" style="rhombus;whiteSpace=wrap;html=1;shadow=0;fontFamily=Helvetica;fontSize=12;align=center;strokeWidth=1;spacing=6;spacingTop=-4;" vertex="1" parent="1">
          <mxGeometry x="1337.5" y="470" width="190" height="80" as="geometry" />
        </mxCell>
        <mxCell id="kFd-FYuM0wiJ4ZgIufho-56" value="No" style="text;html=1;align=center;verticalAlign=middle;resizable=0;points=[];autosize=1;" vertex="1" parent="1">
          <mxGeometry x="1435" y="570" width="30" height="20" as="geometry" />
        </mxCell>
        <mxCell id="kFd-FYuM0wiJ4ZgIufho-57" style="edgeStyle=orthogonalEdgeStyle;rounded=0;orthogonalLoop=1;jettySize=auto;html=1;exitX=0.5;exitY=1;exitDx=0;exitDy=0;" edge="1" parent="1" source="kFd-FYuM0wiJ4ZgIufho-60" target="kFd-FYuM0wiJ4ZgIufho-59">
          <mxGeometry relative="1" as="geometry">
            <mxPoint x="1432.5" y="665" as="sourcePoint" />
          </mxGeometry>
        </mxCell>
        <mxCell id="kFd-FYuM0wiJ4ZgIufho-58" value="" style="edgeStyle=orthogonalEdgeStyle;rounded=0;orthogonalLoop=1;jettySize=auto;html=1;" edge="1" parent="1" source="kFd-FYuM0wiJ4ZgIufho-59" target="kFd-FYuM0wiJ4ZgIufho-63">
          <mxGeometry relative="1" as="geometry">
            <mxPoint x="1432.5" y="830" as="targetPoint" />
          </mxGeometry>
        </mxCell>
        <mxCell id="kFd-FYuM0wiJ4ZgIufho-59" value="更新采集任务状态DONE&lt;br&gt;agdsdatahub_dmc_task" style="rounded=1;whiteSpace=wrap;html=1;fontSize=12;glass=0;strokeWidth=1;shadow=0;" vertex="1" parent="1">
          <mxGeometry x="1357.5" y="730" width="150" height="40" as="geometry" />
        </mxCell>
        <mxCell id="kFd-FYuM0wiJ4ZgIufho-60" value="存储采集信息&lt;br&gt;agdsdatahub_dmc_model_data" style="rounded=1;whiteSpace=wrap;html=1;fontSize=12;glass=0;strokeWidth=1;shadow=0;" vertex="1" parent="1">
          <mxGeometry x="1357.5" y="621.25" width="150" height="37.5" as="geometry" />
        </mxCell>
        <mxCell id="kFd-FYuM0wiJ4ZgIufho-61" style="edgeStyle=orthogonalEdgeStyle;rounded=0;orthogonalLoop=1;jettySize=auto;html=1;exitX=1;exitY=0.5;exitDx=0;exitDy=0;" edge="1" parent="1" source="kFd-FYuM0wiJ4ZgIufho-63" target="kFd-FYuM0wiJ4ZgIufho-65">
          <mxGeometry relative="1" as="geometry" />
        </mxCell>
        <mxCell id="kFd-FYuM0wiJ4ZgIufho-62" style="edgeStyle=orthogonalEdgeStyle;rounded=0;orthogonalLoop=1;jettySize=auto;html=1;exitX=0.5;exitY=1;exitDx=0;exitDy=0;" edge="1" parent="1" source="kFd-FYuM0wiJ4ZgIufho-63" target="kFd-FYuM0wiJ4ZgIufho-68">
          <mxGeometry relative="1" as="geometry" />
        </mxCell>
        <mxCell id="kFd-FYuM0wiJ4ZgIufho-63" value="是否是芝麻采集" style="rhombus;whiteSpace=wrap;html=1;shadow=0;fontFamily=Helvetica;fontSize=12;align=center;strokeWidth=1;spacing=6;spacingTop=-4;" vertex="1" parent="1">
          <mxGeometry x="1350" y="860" width="165" height="80" as="geometry" />
        </mxCell>
        <mxCell id="kFd-FYuM0wiJ4ZgIufho-64" style="edgeStyle=orthogonalEdgeStyle;rounded=0;orthogonalLoop=1;jettySize=auto;html=1;exitX=0.5;exitY=1;exitDx=0;exitDy=0;" edge="1" parent="1" source="kFd-FYuM0wiJ4ZgIufho-65" target="kFd-FYuM0wiJ4ZgIufho-66">
          <mxGeometry relative="1" as="geometry" />
        </mxCell>
        <mxCell id="kFd-FYuM0wiJ4ZgIufho-65" value="保存采集数据Quota到HBASE" style="rounded=1;whiteSpace=wrap;html=1;fontSize=12;glass=0;strokeWidth=1;shadow=0;" vertex="1" parent="1">
          <mxGeometry x="1620" y="880" width="170" height="40" as="geometry" />
        </mxCell>
        <mxCell id="kFd-FYuM0wiJ4ZgIufho-66" value="发送采集完成事件" style="rounded=1;whiteSpace=wrap;html=1;fontSize=12;glass=0;strokeWidth=1;shadow=0;" vertex="1" parent="1">
          <mxGeometry x="1620" y="975" width="170" height="40" as="geometry" />
        </mxCell>
        <mxCell id="kFd-FYuM0wiJ4ZgIufho-67" value="Yes" style="text;html=1;align=center;verticalAlign=middle;resizable=0;points=[];autosize=1;" vertex="1" parent="1">
          <mxGeometry x="1537.5" y="880" width="40" height="20" as="geometry" />
        </mxCell>
        <mxCell id="kFd-FYuM0wiJ4ZgIufho-68" value="插入指标计算任务" style="rounded=1;whiteSpace=wrap;html=1;fontSize=12;glass=0;strokeWidth=1;shadow=0;align=center;" vertex="1" parent="1">
          <mxGeometry x="1350" y="1030" width="165" height="50" as="geometry" />
        </mxCell>
        <mxCell id="kFd-FYuM0wiJ4ZgIufho-69" value="发送指标计算消息" style="rounded=1;whiteSpace=wrap;html=1;fontSize=12;glass=0;strokeWidth=1;shadow=0;" vertex="1" parent="1">
          <mxGeometry x="1372.5" y="1360" width="120" height="40" as="geometry" />
        </mxCell>
      </root>
    </mxGraphModel>
  </diagram>
</mxfile>
